<?xml version="1.0" standalone="no"?><svg xmlns="http://www.w3.org/2000/svg" viewBox="0 0 1440 320"><path fill="#273036" fill-opacity="1" d="M0,288L8,245.3C16,203,32,117,48,106.7C64,96,80,160,96,192C112,224,128,224,144,224C160,224,176,224,192,192C208,160,224,96,240,64C256,32,272,32,288,58.7C304,85,320,139,336,165.3C352,192,368,192,384,176C400,160,416,128,432,112C448,96,464,96,480,96C496,96,512,96,528,122.7C544,149,560,203,576,224C592,245,608,235,624,240C640,245,656,267,672,256C688,245,704,203,720,160C736,117,752,75,768,48C784,21,800,11,816,42.7C832,75,848,149,864,154.7C880,160,896,96,912,74.7C928,53,944,75,960,80C976,85,992,75,1008,90.7C1024,107,1040,149,1056,170.7C1072,192,1088,192,1104,170.7C1120,149,1136,107,1152,101.3C1168,96,1184,128,1200,154.7C1216,181,1232,203,1248,181.3C1264,160,1280,96,1296,80C1312,64,1328,96,1344,96C1360,96,1376,64,1392,85.3C1408,107,1424,181,1432,218.7L1440,256L1440,0L1432,0C1424,0,1408,0,1392,0C1376,0,1360,0,1344,0C1328,0,1312,0,1296,0C1280,0,1264,0,1248,0C1232,0,1216,0,1200,0C1184,0,1168,0,1152,0C1136,0,1120,0,1104,0C1088,0,1072,0,1056,0C1040,0,1024,0,1008,0C992,0,976,0,960,0C944,0,928,0,912,0C896,0,880,0,864,0C848,0,832,0,816,0C800,0,784,0,768,0C752,0,736,0,720,0C704,0,688,0,672,0C656,0,640,0,624,0C608,0,592,0,576,0C560,0,544,0,528,0C512,0,496,0,480,0C464,0,448,0,432,0C416,0,400,0,384,0C368,0,352,0,336,0C320,0,304,0,288,0C272,0,256,0,240,0C224,0,208,0,192,0C176,0,160,0,144,0C128,0,112,0,96,0C80,0,64,0,48,0C32,0,16,0,8,0L0,0Z"></path></svg>