<?xml version="1.0" standalone="no"?><svg xmlns="http://www.w3.org/2000/svg" viewBox="0 0 1440 320"><path fill="#273036" fill-opacity="1" d="M0,288L8,245.3C16,203,32,117,48,106.7C64,96,80,160,96,192C112,224,128,224,144,224C160,224,176,224,192,192C208,160,224,96,240,64C256,32,272,32,288,58.7C304,85,320,139,336,165.3C352,192,368,192,384,176C400,160,416,128,432,112C448,96,464,96,480,96C496,96,512,96,528,122.7C544,149,560,203,576,224C592,245,608,235,624,240C640,245,656,267,672,256C688,245,704,203,720,160C736,117,752,75,768,48C784,21,800,11,816,42.7C832,75,848,149,864,154.7C880,160,896,96,912,74.7C928,53,944,75,960,80C976,85,992,75,1008,90.7C1024,107,1040,149,1056,170.7C1072,192,1088,192,1104,170.7C1120,149,1136,107,1152,101.3C1168,96,1184,128,1200,154.7C1216,181,1232,203,1248,181.3C1264,160,1280,96,1296,80C1312,64,1328,96,1344,96C1360,96,1376,64,1392,85.3C1408,107,1424,181,1432,218.7L1440,256L1440,320L1432,320C1424,320,1408,320,1392,320C1376,320,1360,320,1344,320C1328,320,1312,320,1296,320C1280,320,1264,320,1248,320C1232,320,1216,320,1200,320C1184,320,1168,320,1152,320C1136,320,1120,320,1104,320C1088,320,1072,320,1056,320C1040,320,1024,320,1008,320C992,320,976,320,960,320C944,320,928,320,912,320C896,320,880,320,864,320C848,320,832,320,816,320C800,320,784,320,768,320C752,320,736,320,720,320C704,320,688,320,672,320C656,320,640,320,624,320C608,320,592,320,576,320C560,320,544,320,528,320C512,320,496,320,480,320C464,320,448,320,432,320C416,320,400,320,384,320C368,320,352,320,336,320C320,320,304,320,288,320C272,320,256,320,240,320C224,320,208,320,192,320C176,320,160,320,144,320C128,320,112,320,96,320C80,320,64,320,48,320C32,320,16,320,8,320L0,320Z"></path></svg>